<?xml version="1.0" encoding="UTF-8" standalone="no"?>
<svg
   width="200"
   height="200"
   viewBox="0 0 200 200"
   version="1.1"
   id="svg9"
   sodipodi:docname="chatbot.svg"
   inkscape:export-filename="chatbot.png"
   inkscape:export-xdpi="96"
   inkscape:export-ydpi="96"
   inkscape:version="1.4 (e7c3feb1, 2024-10-09)"
   xmlns:inkscape="http://www.inkscape.org/namespaces/inkscape"
   xmlns:sodipodi="http://sodipodi.sourceforge.net/DTD/sodipodi-0.dtd"
   xmlns="http://www.w3.org/2000/svg"
   xmlns:svg="http://www.w3.org/2000/svg">
  <defs
     id="defs9" />
  <sodipodi:namedview
     id="namedview9"
     pagecolor="#ffffff"
     bordercolor="#000000"
     borderopacity="0.25"
     inkscape:showpageshadow="2"
     inkscape:pageopacity="0.0"
     inkscape:pagecheckerboard="0"
     inkscape:deskcolor="#d1d1d1"
     inkscape:zoom="2.1412845"
     inkscape:cx="63.746783"
     inkscape:cy="125.85903"
     inkscape:window-width="1616"
     inkscape:window-height="860"
     inkscape:window-x="0"
     inkscape:window-y="38"
     inkscape:window-maximized="0"
     inkscape:current-layer="svg9" />
  <!-- Speech Bubble -->
  <path
     d="M160,60 Q170,60 170,70 L170,100 Q170,110 160,110 L130,110 L120,125 L110,110 L80,110 Q70,110 70,100 L70,70 Q70,60 80,60 Z"
     fill="#E6F7FF"
     stroke="#1f77b4"
     stroke-width="3"
     id="path1" />
  <!-- Robot Head -->
  <rect
     x="90"
     y="120"
     width="60"
     height="65"
     rx="10"
     ry="10"
     fill="#1f77b4"
     stroke="#0D3B66"
     stroke-width="2"
     id="rect1" />
  <!-- Antenna -->
  <line
     x1="120"
     y1="120"
     x2="120"
     y2="105"
     stroke="#0D3B66"
     stroke-width="3"
     id="line1" />
  <circle
     cx="120"
     cy="100"
     r="5"
     fill="#E94F37"
     id="circle1" />
  <!-- Eyes -->
  <circle
     cx="105"
     cy="140"
     r="8"
     fill="#E6F7FF"
     id="circle2" />
  <circle
     cx="135"
     cy="140"
     r="8"
     fill="#E6F7FF"
     id="circle3" />
  <circle
     cx="105"
     cy="140"
     r="4"
     fill="#0D3B66"
     id="circle4" />
  <circle
     cx="135"
     cy="140"
     r="4"
     fill="#0D3B66"
     id="circle5" />
  <!-- Mouth -->
  <rect
     x="105"
     y="160"
     width="30"
     height="5"
     rx="2"
     ry="2"
     fill="#E6F7FF"
     id="rect5" />
  <!-- Chat Dots in Speech Bubble -->
  <circle
     cx="90"
     cy="85"
     r="4"
     fill="#1f77b4"
     id="circle6" />
  <circle
     cx="105"
     cy="85"
     r="4"
     fill="#1f77b4"
     id="circle7" />
  <circle
     cx="120"
     cy="85"
     r="4"
     fill="#1f77b4"
     id="circle8" />
  <!-- Ear/Indicator Lights -->
  <rect
     x="85"
     y="135"
     width="5"
     height="15"
     rx="2"
     ry="2"
     fill="#E94F37"
     id="rect8" />
  <rect
     x="150"
     y="135"
     width="5"
     height="15"
     rx="2"
     ry="2"
     fill="#E94F37"
     id="rect9" />
</svg>
